<svg xmlns="http://www.w3.org/2000/svg" fill="none" viewBox="0 0 32 32">
  <path fill="#F6F6F6" d="M0 8a8 8 0 0 1 8-8h16a8 8 0 0 1 8 8v16a8 8 0 0 1-8 8H8a8 8 0 0 1-8-8z"/>
  <path fill="#1F1F1F" fill-rule="evenodd" d="m10.865 14.759 2.241-3.812C14.706 8.227 16.016 6 16.02 6s.947 1.599 2.096 3.552l1.199 2.039 1.74 2.961c.47.796.849 1.452.844 1.457s-.56.353-1.234.772l-4.3 2.684-.344.214-.362-.226-1.081-.675-3.795-2.366-.65-.407.032-.056zm5.147 10.84a3857 3857 0 0 1-5.867-8.396c0-.004.02.006.045.02.778.488 5.812 3.626 5.822 3.63.008.003 1.336-.818 2.95-1.826a600 600 0 0 1 2.94-1.828c0 .002-1.32 1.896-2.937 4.21-2.24 3.204-2.942 4.2-2.953 4.19" clip-rule="evenodd"/>
</svg>
