<svg xmlns="http://www.w3.org/2000/svg" fill="none" viewBox="0 0 32 32">
  <path fill="#fff" d="M0 8a8 8 0 0 1 8-8h16a8 8 0 0 1 8 8v16a8 8 0 0 1-8 8H8a8 8 0 0 1-8-8z"/>
  <path fill="#1F1F1F" d="M8.738 23q-2.088 0-3.42-1.01C4.439 21.306 4 20.325 4 19.064c0-.269.028-.587.084-.971.15-.866.365-1.906.645-3.128.794-3.31 2.85-4.965 6.159-4.965.897 0 1.71.154 2.42.472a3.7 3.7 0 0 1 1.683 1.376q.616.909.617 2.165 0 .375-.085.952a40 40 0 0 1-.635 3.128c-.411 1.645-1.112 2.886-2.122 3.704-1 .808-2.345 1.203-4.028 1.203m.253-2.598c.654 0 1.205-.202 1.663-.597.467-.394.804-1 1-1.828.271-1.135.477-2.117.617-2.964.047-.25.075-.51.075-.78q.002-1.645-1.664-1.645c-.654 0-1.215.203-1.682.597-.458.395-.785 1-.981 1.828-.215.809-.42 1.79-.636 2.964-.047.24-.075.49-.075.76-.009 1.116.561 1.665 1.683 1.665m7.43 2.425a.36.36 0 0 1-.3-.125c-.056-.097-.074-.202-.056-.328l2.421-11.739a.48.48 0 0 1 .196-.327.5.5 0 0 1 .337-.125h4.663c1.3 0 2.337.279 3.122.827.794.559 1.196 1.357 1.196 2.406 0 .298-.037.616-.103.943-.29 1.386-.878 2.406-1.775 3.07-.879.664-2.085.99-3.617.99H20.14l-.804 3.956a.52.52 0 0 1-.196.327.5.5 0 0 1-.336.125zm6.205-6.9c.495 0 .916-.134 1.28-.413.374-.28.617-.674.739-1.194q.056-.305.056-.538c0-.347-.103-.616-.3-.799-.195-.193-.541-.289-1.018-.289H21.28l-.663 3.233z"/>
</svg>
