<svg xmlns="http://www.w3.org/2000/svg" fill="none" viewBox="0 0 32 32">
  <path fill="#1F1F1F" d="M0 8a8 8 0 0 1 8-8h16a8 8 0 0 1 8 8v16a8 8 0 0 1-8 8H8a8 8 0 0 1-8-8z"/>
  <path fill="#fff" d="M21.658 11.916c-.402-.23-.92-.23-1.379 0l-3.216 1.896-2.183 1.206-3.16 1.896c-.402.23-.918.23-1.378 0l-2.47-1.494a1.4 1.4 0 0 1-.69-1.206v-2.872c0-.46.23-.919.69-1.206l2.47-1.436c.402-.23.92-.23 1.379 0l2.47 1.493c.402.23.689.69.689 1.207v1.895l2.183-1.264v-1.953c0-.46-.23-.919-.69-1.206l-4.595-2.7c-.402-.23-.919-.23-1.379 0L5.69 8.93c-.46.23-.69.689-.69 1.148v5.4c0 .46.23.919.69 1.206l4.652 2.7c.402.23.92.23 1.379 0l3.159-1.838 2.183-1.264 3.159-1.838c.402-.23.919-.23 1.378 0l2.47 1.436c.403.23.69.69.69 1.206v2.872c0 .46-.23.92-.69 1.207L21.659 22.6c-.402.23-.92.23-1.379 0l-2.47-1.436a1.4 1.4 0 0 1-.689-1.207V18.12l-2.183 1.264v1.895c0 .46.23.92.69 1.207l4.652 2.7c.402.23.92.23 1.379 0l4.653-2.7A1.4 1.4 0 0 0 27 21.279v-5.456c0-.46-.23-.92-.69-1.207z"/>
</svg>
