<svg xmlns="http://www.w3.org/2000/svg" fill="none" viewBox="0 0 32 32">
  <g clip-path="url(#prefix__a)">
    <path fill="#213147" d="M16 32c8.837 0 16-7.163 16-16S24.837 0 16 0 0 7.163 0 16s7.163 16 16 16"/>
    <path fill="#213147" d="M6.17 11.306v9.408c0 .605.317 1.152.845 1.459l8.15 4.704a1.69 1.69 0 0 0 1.68 0l8.15-4.704c.519-.298.845-.854.845-1.46v-9.407c0-.605-.316-1.152-.844-1.46l-8.151-4.704a1.69 1.69 0 0 0-1.68 0l-8.15 4.704a1.68 1.68 0 0 0-.835 1.46z"/>
    <path fill="#12AAFF" d="m17.776 17.834-1.161 3.187a.46.46 0 0 0 0 .278l1.996 5.482 2.314-1.335-2.774-7.613a.2.2 0 0 0-.375 0m2.333-5.356a.2.2 0 0 0-.374 0l-1.162 3.187a.46.46 0 0 0 0 .278l3.274 8.976 2.313-1.334-4.051-11.098z"/>
    <path fill="#9DCCED" d="M16 5.498c.058 0 .116.019.163.048l8.813 5.088a.33.33 0 0 1 .164.288v10.176a.35.35 0 0 1-.165.288l-8.812 5.088a.3.3 0 0 1-.164.048.3.3 0 0 1-.163-.048l-8.812-5.088a.33.33 0 0 1-.163-.288V10.912c0-.115.067-.23.163-.288l8.813-5.088a.3.3 0 0 1 .162-.048zm0-1.488a1.8 1.8 0 0 0-.912.24L6.276 9.338a1.81 1.81 0 0 0-.912 1.574v10.176c0 .653.345 1.248.912 1.574l8.812 5.088c.279.164.596.24.912.24s.624-.076.912-.24l8.813-5.088a1.81 1.81 0 0 0 .912-1.574V10.912a1.81 1.81 0 0 0-.913-1.574l-8.82-5.088a1.8 1.8 0 0 0-.912-.24z"/>
    <path fill="#213147" d="m10.164 24.928.816-2.227 1.631 1.353-1.527 1.402z"/>
    <path fill="#fff" d="M15.25 10.192h-2.235a.41.41 0 0 0-.375.26L7.85 23.583l2.313 1.334 5.28-14.467a.198.198 0 0 0-.182-.269zm3.918 0h-2.236a.41.41 0 0 0-.375.26l-5.472 14.994 2.313 1.335 5.953-16.33a.198.198 0 0 0-.183-.269z"/>
  </g>
  <defs>
    <clipPath id="prefix__a">
      <rect width="32" height="32" fill="#fff" rx="16"/>
    </clipPath>
  </defs>
</svg>
