<svg width="1024" height="1024" viewBox="0 0 1024 1024" fill="none" xmlns="http://www.w3.org/2000/svg">
<g filter="url(#filter0_dd_114_1212)">
<rect x="100" y="100" width="824" height="824" rx="185" fill="#60E198"/>
</g>
<path d="M664.986 341.589C664.986 260.921 595.908 194 511.983 194C428.059 194 358.964 260.954 358.964 341.589V388.763H296V728.073L511.934 830L728 728.073V390.275H665.036L664.986 341.589ZM436.973 341.589C436.973 303.557 469.98 273.122 511.983 273.122C553.987 273.122 586.994 303.557 586.994 341.589V388.763H436.973V341.589ZM640.994 673.302L511.934 734.207L382.907 673.353V469.414H640.994V673.302Z" fill="#0E1115" fill-opacity="0.94"/>
<defs>
<filter id="filter0_dd_114_1212" x="91" y="98" width="842" height="846" filterUnits="userSpaceOnUse" color-interpolation-filters="sRGB">
<feFlood flood-opacity="0" result="BackgroundImageFix"/>
<feColorMatrix in="SourceAlpha" type="matrix" values="0 0 0 0 0 0 0 0 0 0 0 0 0 0 0 0 0 0 127 0" result="hardAlpha"/>
<feMorphology radius="1" operator="dilate" in="SourceAlpha" result="effect1_dropShadow_114_1212"/>
<feOffset dy="7"/>
<feGaussianBlur stdDeviation="4"/>
<feComposite in2="hardAlpha" operator="out"/>
<feColorMatrix type="matrix" values="0 0 0 0 0 0 0 0 0 0 0 0 0 0 0 0 0 0 0.15 0"/>
<feBlend mode="normal" in2="BackgroundImageFix" result="effect1_dropShadow_114_1212"/>
<feColorMatrix in="SourceAlpha" type="matrix" values="0 0 0 0 0 0 0 0 0 0 0 0 0 0 0 0 0 0 127 0" result="hardAlpha"/>
<feOffset dy="12"/>
<feGaussianBlur stdDeviation="4"/>
<feComposite in2="hardAlpha" operator="out"/>
<feColorMatrix type="matrix" values="0 0 0 0 0 0 0 0 0 0 0 0 0 0 0 0 0 0 0.15 0"/>
<feBlend mode="normal" in2="effect1_dropShadow_114_1212" result="effect2_dropShadow_114_1212"/>
<feBlend mode="normal" in="SourceGraphic" in2="effect2_dropShadow_114_1212" result="shape"/>
</filter>
</defs>
</svg>
