<svg xmlns="http://www.w3.org/2000/svg" fill="none" viewBox="0 0 102 90">
  <path fill="#000" d="M32.205.173h39.106a9.8 9.8 0 0 1 4.623 1.148l.282.157a9.8 9.8 0 0 1 3.425 3.306l.166.277 19.572 33.822a12.2 12.2 0 0 1 1.621 5.72l.005.402a12.2 12.2 0 0 1-1.468 5.76l-.197.35v.001L79.767 84.94a9.78 9.78 0 0 1-8.457 4.888H32.215l-.4-.007a12.24 12.24 0 0 1-10.159-6.085L2.083 49.862a9.77 9.77 0 0 1-.156-9.494l.156-.28L21.656 6.265a12.2 12.2 0 0 1 4.117-4.246l.344-.207a12.24 12.24 0 0 1 5.688-1.63zM9.535 48.762l15.653 27.12a7.48 7.48 0 0 1-.325 6.8l.15.086.15.085 2.18-3.8 10.958-19 .004-.006c.191-.368.446-.7.753-.978l.133-.116a3.52 3.52 0 0 1 2.475-.788l.177.017a3.52 3.52 0 0 1 2.945 2.481l.046.172c.098.403.124.82.077 1.23l-.024.176a3.5 3.5 0 0 1-.414 1.161l-.092.153-.005.007-10.956 19-.15.26h39.753l.007-.346a8.1 8.1 0 0 1-3.188-.787l-.422-.217a8.1 8.1 0 0 1-2.49-2.139l-.278-.383-16.478-28.5-.136-.218a3.9 3.9 0 0 0-1.076-1.07l-.217-.135a3.9 3.9 0 0 0-1.692-.514l-.255-.01H9.385zM76.996 7.156l-.019.032-2.162 3.758L56.22 43.06a3.91 3.91 0 0 0-.12 3.667l.12.225v.001l18.596 32.102.15.258.15-.258 17.5-30.281-.004-.004 2.215-3.796-.298-.174a7.5 7.5 0 0 1-2.547 2.6l-.213.124a7.5 7.5 0 0 1-3.753.98H70.483a3.52 3.52 0 0 1-2.357-.907l-.127-.12a3.506 3.506 0 0 1-.12-4.835l.12-.126a3.52 3.52 0 0 1 2.484-1.028h22.322l-.149-.259-.15.087.15-.087-.003-.004-.008-.014-.03-.053-.12-.209-.455-.792-1.63-2.834a6400 6400 0 0 0-4.99-8.658 3157 3157 0 0 0-5.106-8.823 597 597 0 0 0-1.778-3.04c-.224-.38-.41-.695-.552-.928l-.278-.444a7.5 7.5 0 0 1-1.372-3.723l-.019-.268a7.5 7.5 0 0 1 .982-4.11l-.299-.172m-47.88.032-.008.346a8.2 8.2 0 0 1 3.223.81l.425.222a8.2 8.2 0 0 1 2.783 2.553h.001l8.825 15.3c.388.75.492 1.612.296 2.43l-.044.163a3.5 3.5 0 0 1-1.47 1.968l-.144.087a3.52 3.52 0 0 1-2.424.408l-.165-.037a3.5 3.5 0 0 1-2.126-1.514L27.334 10.946l-.15-.258-.149.258-17.48 30.291-2.212 3.79.299.174a7.5 7.5 0 0 1 2.546-2.6l.212-.124a7.5 7.5 0 0 1 3.508-.978l.246-.002h32.643a3.91 3.91 0 0 0 3.241-1.73l.136-.216L68.73 7.448l.149-.26z"/>
</svg>
