<svg xmlns="http://www.w3.org/2000/svg" fill="none" viewBox="0 0 16 16">
  <path fill="#000" d="M4.161 5.563c2.12-2.084 5.558-2.084 7.678 0l.255.25a.264.264 0 0 1 0 .378l-.873.858a.137.137 0 0 1-.192 0l-.351-.345a3.833 3.833 0 0 0-5.356 0l-.376.37a.137.137 0 0 1-.192 0l-.873-.858a.264.264 0 0 1 0-.378zm9.483 1.775.777.763a.264.264 0 0 1 0 .378l-3.503 3.443a.275.275 0 0 1-.384 0L8.048 9.478a.07.07 0 0 0-.096 0l-2.486 2.444a.275.275 0 0 1-.384 0L1.58 8.478a.264.264 0 0 1 0-.377l.776-.764a.275.275 0 0 1 .384 0l2.486 2.444c.027.026.07.026.096 0l2.486-2.444a.275.275 0 0 1 .384 0l2.486 2.444c.026.026.07.026.096 0l2.486-2.443a.275.275 0 0 1 .384 0"/>
</svg>
