<svg xmlns="http://www.w3.org/2000/svg" fill="none" viewBox="0 0 32 32">
  <path fill="#000" d="M8.323 11.126c4.24-4.168 11.114-4.168 15.354 0l.51.502a.527.527 0 0 1 0 .755l-1.745 1.716a.275.275 0 0 1-.384 0l-.702-.69c-2.958-2.909-7.754-2.909-10.712 0l-.752.739a.275.275 0 0 1-.384 0L7.763 12.43a.527.527 0 0 1 0-.754zm18.964 3.55 1.554 1.526a.527.527 0 0 1 0 .755l-7.005 6.887a.55.55 0 0 1-.768 0l-4.972-4.888a.137.137 0 0 0-.192 0l-4.972 4.888a.55.55 0 0 1-.768 0L3.16 16.957a.527.527 0 0 1 0-.755l1.554-1.527a.55.55 0 0 1 .767 0l4.972 4.888a.137.137 0 0 0 .192 0l4.972-4.888a.55.55 0 0 1 .768 0l4.972 4.888a.137.137 0 0 0 .192 0l4.972-4.888a.55.55 0 0 1 .767 0"/>
</svg>
