<svg width="336" height="115" viewBox="0 0 336 115" fill="none" xmlns="http://www.w3.org/2000/svg">
<path d="M92.5 89.5005C119 96.5005 168.1 83.7005 168.5 56.5005C168.9 29.3005 217.5 13.5005 251.5 26.0005" stroke="url(#paint0_linear_2032_4179)" stroke-width="2"/>
<g filter="url(#filter0_d_2032_4179)">
<path d="M168.5 67.5005C174.023 67.5005 178.5 63.0233 178.5 57.5005C178.5 51.9776 174.023 47.5005 168.5 47.5005C162.977 47.5005 158.5 51.9776 158.5 57.5005C158.5 63.0233 162.977 67.5005 168.5 67.5005Z" fill="white"/>
</g>
<path d="M172 57.5L172.767 56.7675C173.223 56.296 173.475 55.6645 173.469 55.009C173.463 54.3535 173.201 53.7265 172.737 53.263C172.274 52.7995 171.646 52.5366 170.991 52.5309C170.336 52.5252 169.704 52.7771 169.233 53.2325L168.5 54" stroke="#CD4949" stroke-width="1.5" stroke-linecap="round" stroke-linejoin="round"/>
<path d="M165 57.5005L164.233 58.233C163.777 58.7045 163.525 59.336 163.531 59.9915C163.537 60.647 163.799 61.274 164.263 61.7375C164.727 62.2011 165.354 62.464 166.009 62.4697C166.665 62.4754 167.296 62.2234 167.768 61.768L168.5 61.0005" stroke="#CD4949" stroke-width="1.5" stroke-linecap="round" stroke-linejoin="round"/>
<path d="M172 59.5005H173.5" stroke="#CD4949" stroke-width="1.5" stroke-linecap="round" stroke-linejoin="round"/>
<path d="M163.5 55.5005H165" stroke="#CD4949" stroke-width="1.5" stroke-linecap="round" stroke-linejoin="round"/>
<path d="M170.5 61.0005V62.5005" stroke="#CD4949" stroke-width="1.5" stroke-linecap="round" stroke-linejoin="round"/>
<path d="M166.5 52.5005V54.0005" stroke="#CD4949" stroke-width="1.5" stroke-linecap="round" stroke-linejoin="round"/>
<path d="M263.023 41.3141C269.304 41.3141 274.395 36.2227 274.395 29.9422C274.395 23.6617 269.304 18.5703 263.023 18.5703C256.743 18.5703 251.651 23.6617 251.651 29.9422C251.651 36.2227 256.743 41.3141 263.023 41.3141Z" stroke="#CCCCCC" stroke-opacity="0.4" stroke-width="2.14634"/>
<mask id="mask0_2032_4179" style="mask-type:luminance" maskUnits="userSpaceOnUse" x="281" y="88" width="24" height="24">
<path d="M305 88H281V112H305V88Z" fill="white"/>
</mask>
<g mask="url(#mask0_2032_4179)">
<path fill-rule="evenodd" clip-rule="evenodd" d="M293 88C299.628 88 305 93.3721 305 100C305 106.628 299.628 112 293 112C286.372 112 281 106.628 281 100C281 93.3721 286.372 88 293 88Z" fill="#F0B90B"/>
<path d="M287.595 100L287.604 103.173L290.3 104.759V106.617L286.026 104.11V99.0723L287.595 100ZM287.595 96.8269V98.6763L286.025 97.7471V95.898L287.595 94.9692L289.173 95.898L287.595 96.8269ZM291.426 95.898L292.996 94.9692L294.574 95.898L292.996 96.8269L291.426 95.898Z" fill="white"/>
<path d="M288.73 102.515V100.657L290.3 101.586V103.435L288.73 102.515ZM291.426 105.425L292.996 106.354L294.574 105.425V107.274L292.996 108.203L291.426 107.274V105.425ZM296.826 95.898L298.396 94.9692L299.974 95.898V97.7471L298.396 98.6763V96.8269L296.826 95.898ZM298.396 103.173L298.405 100L299.975 99.0713V104.109L295.701 106.616V104.758L298.396 103.173Z" fill="white"/>
<path d="M297.27 102.515L295.7 103.435V101.586L297.27 100.657V102.515Z" fill="white"/>
<path d="M297.27 97.4844L297.279 99.3421L294.575 100.929V104.109L293.005 105.029L291.435 104.109V100.929L288.731 99.3421V97.4844L290.308 96.5555L292.995 98.1501L295.699 96.5555L297.277 97.4844H297.27ZM288.73 94.3123L292.996 91.7969L297.27 94.3123L295.7 95.2411L292.996 93.6469L290.3 95.2411L288.73 94.3123Z" fill="white"/>
</g>
<mask id="mask1_2032_4179" style="mask-type:luminance" maskUnits="userSpaceOnUse" x="301" y="68" width="24" height="24">
<path d="M325 80C325 73.3726 319.627 68 313 68C306.373 68 301 73.3726 301 80C301 86.6274 306.373 92 313 92C319.627 92 325 86.6274 325 80Z" fill="white"/>
</mask>
<g mask="url(#mask1_2032_4179)">
<path d="M313 92C319.604 92 325 86.5952 325 80C325 73.3952 319.595 68 313 68C306.395 68 301 73.4048 301 80C301 86.6048 306.404 92 313 92Z" fill="url(#paint1_linear_2032_4179)"/>
<path d="M316.475 82.592L319.873 80.6336C320.056 80.528 320.161 80.336 320.161 80.1248V76.208C320.161 75.9968 320.046 75.8048 319.873 75.6992L316.475 73.7408C316.292 73.6352 316.072 73.6352 315.889 73.7408L312.491 75.6992C312.308 75.8048 312.203 75.9968 312.203 76.208V83.216L309.822 84.5888L307.441 83.216V80.4704L309.822 79.0976L311.396 80V78.1568L310.12 77.4176C310.033 77.3696 309.928 77.3408 309.832 77.3408C309.726 77.3408 309.63 77.3696 309.544 77.4176L306.145 79.376C305.963 79.4816 305.857 79.6736 305.857 79.8848V83.8016C305.857 84.0128 305.972 84.2048 306.145 84.3104L309.544 86.2688C309.726 86.3744 309.947 86.3744 310.129 86.2688L313.528 84.3104C313.71 84.2048 313.816 84.0128 313.816 83.8016V76.7936L313.854 76.7648L316.196 75.4112L318.577 76.784V79.5296L316.196 80.9024L314.632 80V81.8432L315.908 82.5824C316.091 82.688 316.312 82.688 316.494 82.5824L316.475 82.592Z" fill="white"/>
</g>
<path d="M235.806 75.2961V84.7041C235.806 85.3089 236.123 85.8561 236.651 86.1633L244.801 90.8673C245.32 91.1649 245.963 91.1649 246.481 90.8673L254.632 86.1633C255.15 85.8657 255.476 85.3089 255.476 84.7041V75.2961C255.476 74.6913 255.16 74.1441 254.632 73.8369L246.481 69.1329C245.963 68.8353 245.32 68.8353 244.801 69.1329L236.651 73.8369C236.132 74.1345 235.816 74.6913 235.816 75.2961H235.806Z" fill="#213147"/>
<path d="M247.412 81.8239L246.251 85.0111C246.222 85.0975 246.222 85.1935 246.251 85.2895L248.247 90.7711L250.561 89.4367L247.787 81.8239C247.719 81.6511 247.479 81.6511 247.412 81.8239Z" fill="#12AAFF"/>
<path d="M249.745 76.467C249.678 76.2942 249.438 76.2942 249.371 76.467L248.209 79.6542C248.18 79.7406 248.18 79.8366 248.209 79.9326L251.483 88.9086L253.796 87.5742L249.745 76.4766V76.467Z" fill="#12AAFF"/>
<path d="M245.636 69.488C245.694 69.488 245.752 69.5072 245.8 69.536L254.612 74.624C254.718 74.6816 254.776 74.7968 254.776 74.912V85.088C254.776 85.2032 254.708 85.3184 254.612 85.376L245.8 90.464C245.752 90.4928 245.694 90.512 245.636 90.512C245.579 90.512 245.521 90.4928 245.473 90.464L236.66 85.376C236.555 85.3184 236.497 85.2032 236.497 85.088V74.9024C236.497 74.7872 236.564 74.672 236.66 74.6144L245.473 69.5264C245.521 69.4976 245.579 69.4784 245.636 69.4784V69.488ZM245.636 68C245.32 68 245.012 68.0768 244.724 68.24L235.912 73.328C235.345 73.6544 235 74.2496 235 74.9024V85.0784C235 85.7312 235.345 86.3264 235.912 86.6528L244.724 91.7408C245.003 91.904 245.32 91.9808 245.636 91.9808C245.953 91.9808 246.26 91.904 246.548 91.7408L255.361 86.6528C255.928 86.3264 256.273 85.7312 256.273 85.0784V74.9024C256.273 74.2496 255.928 73.6544 255.361 73.328L246.539 68.24C246.26 68.0768 245.944 68 245.627 68H245.636Z" fill="#9DCCED"/>
<path d="M239.8 88.9181L240.616 86.6909L242.248 88.0445L240.721 89.4461L239.8 88.9181Z" fill="#213147"/>
<path d="M244.887 74.1824H242.651C242.487 74.1824 242.334 74.2881 242.276 74.4417L237.486 87.5744L239.799 88.9089L245.079 74.4417C245.127 74.3073 245.031 74.1729 244.897 74.1729L244.887 74.1824Z" fill="white"/>
<path d="M248.804 74.1824H246.568C246.404 74.1824 246.251 74.2881 246.193 74.4417L240.721 89.4369L243.035 90.7712L248.987 74.4417C249.035 74.3073 248.939 74.1729 248.804 74.1729V74.1824Z" fill="white"/>
<path d="M96.8382 59.4298C103.119 59.4298 108.21 54.3385 108.21 48.0579C108.21 41.7774 103.119 36.686 96.8382 36.686C90.5577 36.686 85.4663 41.7774 85.4663 48.0579C85.4663 54.3385 90.5577 59.4298 96.8382 59.4298Z" stroke="#AAAAAA" stroke-opacity="0.1" stroke-width="2.14634"/>
<path d="M47.0573 109.21C53.3379 109.21 58.4292 104.119 58.4292 97.8382C58.4292 91.5577 53.3379 86.4663 47.0573 86.4663C40.7768 86.4663 35.6854 91.5577 35.6854 97.8382C35.6854 104.119 40.7768 109.21 47.0573 109.21Z" stroke="#AAAAAA" stroke-opacity="0.1" stroke-width="2.14634"/>
<path d="M82.2578 94.6305C88.5383 94.6305 93.6297 89.5391 93.6297 83.2586C93.6297 76.9781 88.5383 71.8867 82.2578 71.8867C75.9773 71.8867 70.8859 76.9781 70.8859 83.2586C70.8859 89.5391 75.9773 94.6305 82.2578 94.6305Z" stroke="#CCCCCC" stroke-opacity="0.4" stroke-width="2.14634"/>
<g filter="url(#filter1_d_2032_4179)">
<path d="M47.0003 77.0006C63.569 77.0006 77.0006 63.569 77.0006 47.0003C77.0006 30.4316 63.569 17 47.0003 17C30.4316 17 17 30.4316 17 47.0003C17 63.569 30.4316 77.0006 47.0003 77.0006Z" fill="white" fill-opacity="0.01"/>
</g>
<circle cx="245" cy="53" r="12" fill="#0052FF"/>
<path d="M244.987 60.5C249.136 60.5 252.5 57.1421 252.5 53C252.5 48.8579 249.136 45.5 244.987 45.5C241.05 45.5 237.821 48.5224 237.5 52.3696H247.431V53.6304H237.5C237.821 57.4775 241.05 60.5 244.987 60.5Z" fill="white"/>
<path opacity="0.24" d="M285.274 22.2736C289.541 18.0064 296.459 18.0064 300.726 22.2736C304.994 26.5408 304.994 33.4592 300.726 37.7264C296.459 41.9936 289.541 41.9936 285.274 37.7264C281.006 33.4592 281.006 26.5408 285.274 22.2736Z" stroke="#757576" stroke-width="2.14634"/>
<path opacity="0.24" d="M303.274 45.2736C307.541 41.0064 314.459 41.0064 318.726 45.2736C322.994 49.5408 322.994 56.4592 318.726 60.7264C314.459 64.9936 307.541 64.9936 303.274 60.7264C299.006 56.4592 299.006 49.5408 303.274 45.2736Z" stroke="#757576" stroke-width="2.14634"/>
<mask id="mask2_2032_4179" style="mask-type:luminance" maskUnits="userSpaceOnUse" x="253" y="88" width="24" height="24">
<path d="M277 88H253V112H277V88Z" fill="white"/>
</mask>
<g mask="url(#mask2_2032_4179)">
<path d="M265 112C271.627 112 277 106.627 277 100C277 93.3725 271.627 88 265 88C258.372 88 253 93.3725 253 100C253 106.627 258.372 112 265 112Z" fill="#FF0420"/>
<path d="M261.501 103.187C260.785 103.187 260.2 103.019 259.744 102.683C259.293 102.343 259.067 101.853 259.067 101.224C259.067 101.09 259.081 100.931 259.11 100.739C259.187 100.307 259.297 99.789 259.441 99.1794C259.849 97.5282 260.905 96.7026 262.605 96.7026C263.065 96.7026 263.483 96.7794 263.848 96.9378C264.213 97.0866 264.501 97.317 264.712 97.6242C264.923 97.9266 265.029 98.2866 265.029 98.7042C265.029 98.829 265.014 98.9874 264.985 99.1794C264.894 99.7122 264.789 100.235 264.659 100.739C264.448 101.56 264.088 102.179 263.569 102.587C263.056 102.991 262.365 103.187 261.501 103.187ZM261.63 101.891C261.966 101.891 262.249 101.791 262.485 101.594C262.725 101.397 262.897 101.095 262.998 100.682C263.137 100.115 263.243 99.6258 263.315 99.2034C263.339 99.0786 263.353 98.949 263.353 98.8146C263.353 98.2674 263.07 97.9938 262.499 97.9938C262.163 97.9938 261.875 98.0946 261.635 98.2914C261.4 98.4882 261.232 98.7906 261.131 99.2034C261.021 99.6066 260.915 100.096 260.805 100.682C260.781 100.802 260.766 100.927 260.766 101.061C260.761 101.618 261.054 101.891 261.63 101.891Z" fill="white"/>
<path d="M265.446 103.101C265.379 103.101 265.331 103.082 265.293 103.039C265.264 102.991 265.254 102.938 265.264 102.876L266.507 97.0195C266.517 96.9523 266.55 96.8995 266.608 96.8563C266.661 96.8131 266.718 96.7939 266.781 96.7939H269.176C269.843 96.7939 270.376 96.9331 270.779 97.2067C271.187 97.4851 271.394 97.8835 271.394 98.4067C271.394 98.5555 271.374 98.7139 271.341 98.8771C271.192 99.5683 270.89 100.077 270.429 100.408C269.978 100.74 269.358 100.903 268.571 100.903H267.357L266.944 102.876C266.93 102.943 266.901 102.996 266.843 103.039C266.79 103.082 266.733 103.101 266.67 103.101H265.446ZM268.634 99.6595C268.888 99.6595 269.104 99.5923 269.291 99.4531C269.483 99.3139 269.608 99.1171 269.67 98.8579C269.69 98.7571 269.699 98.6659 269.699 98.5891C269.699 98.4163 269.646 98.2819 269.546 98.1907C269.445 98.0947 269.267 98.0467 269.022 98.0467H267.942L267.602 99.6595H268.634Z" fill="white"/>
</g>
<defs>
<filter id="filter0_d_2032_4179" x="146.5" y="35.5005" width="44" height="44" filterUnits="userSpaceOnUse" color-interpolation-filters="sRGB">
<feFlood flood-opacity="0" result="BackgroundImageFix"/>
<feColorMatrix in="SourceAlpha" type="matrix" values="0 0 0 0 0 0 0 0 0 0 0 0 0 0 0 0 0 0 127 0" result="hardAlpha"/>
<feOffset/>
<feGaussianBlur stdDeviation="6"/>
<feComposite in2="hardAlpha" operator="out"/>
<feColorMatrix type="matrix" values="0 0 0 0 0.791667 0 0 0 0 0 0 0 0 0 0 0 0 0 0.13 0"/>
<feBlend mode="normal" in2="BackgroundImageFix" result="effect1_dropShadow_2032_4179"/>
<feBlend mode="normal" in="SourceGraphic" in2="effect1_dropShadow_2032_4179" result="shape"/>
</filter>
<filter id="filter1_d_2032_4179" x="0.360001" y="0.360001" width="93.2806" height="93.2805" filterUnits="userSpaceOnUse" color-interpolation-filters="sRGB">
<feFlood flood-opacity="0" result="BackgroundImageFix"/>
<feColorMatrix in="SourceAlpha" type="matrix" values="0 0 0 0 0 0 0 0 0 0 0 0 0 0 0 0 0 0 127 0" result="hardAlpha"/>
<feOffset/>
<feGaussianBlur stdDeviation="8.32"/>
<feComposite in2="hardAlpha" operator="out"/>
<feColorMatrix type="matrix" values="0 0 0 0 0 0 0 0 0 0 0 0 0 0 0 0 0 0 0.08 0"/>
<feBlend mode="normal" in2="BackgroundImageFix" result="effect1_dropShadow_2032_4179"/>
<feBlend mode="normal" in="SourceGraphic" in2="effect1_dropShadow_2032_4179" result="shape"/>
</filter>
<linearGradient id="paint0_linear_2032_4179" x1="251.5" y1="31.5005" x2="92.5" y2="32.0005" gradientUnits="userSpaceOnUse">
<stop stop-color="#CCCCCC" stop-opacity="0.333333"/>
<stop offset="0.411458" stop-color="#CCCCCC" stop-opacity="0.666667"/>
<stop offset="0.447917" stop-color="#FFC2C2"/>
<stop offset="0.53125" stop-color="#FFADAD"/>
<stop offset="0.598958" stop-color="#CCCCCC" stop-opacity="0.666667"/>
<stop offset="1" stop-color="#CCCCCC" stop-opacity="0.333333"/>
</linearGradient>
<linearGradient id="paint1_linear_2032_4179" x1="296.61" y1="69.9489" x2="321.359" y2="85.1265" gradientUnits="userSpaceOnUse">
<stop stop-color="#A229C5"/>
<stop offset="1" stop-color="#7B3FE4"/>
</linearGradient>
</defs>
</svg>
