<svg xmlns="http://www.w3.org/2000/svg" width="32" height="32" viewBox="0 0 32 32" fill="none">
    <path class="bg" fill="#1F1F1F" d="M0 8a8 8 0 0 1 8-8h16a8 8 0 0 1 8 8v16a8 8 0 0 1-8 8H8a8 8 0 0 1-8-8z"/>
    <path class="fg" fill="#F6F6F6" fill-rule="evenodd" d="M16.163 5.546A.3.3 0 0 0 16 5.498v-.01a.3.3 0 0 0-.163.048l-8.812 5.088a.35.35 0 0 0-.163.288v10.186c0 .115.058.23.163.288l1.344.776 4.272-11.71a.41.41 0 0 1 .375-.26h2.236l.01-.01c.134 0 .23.135.182.27L10.68 23.496l.92.532 4.955-13.578a.41.41 0 0 1 .375-.259h2.236v-.01c.135 0 .231.135.183.27l-5.435 14.912 1.921 1.11a.3.3 0 0 0 .163.048c.059 0 .117-.02.164-.048l1.93-1.114-1.478-4.06a.46.46 0 0 1 0-.28l1.16-3.186a.2.2 0 0 1 .376 0l2.255 6.19.92-.532-2.753-7.55a.46.46 0 0 1 0-.278l1.162-3.187a.2.2 0 0 1 .374 0v.01l3.53 9.67 1.337-.771a.35.35 0 0 0 .164-.288V10.922a.33.33 0 0 0-.165-.288zM13.4 26.776l1.688.974c.279.164.596.24.912.24s.623-.076.912-.24l1.695-.979.004.01 2.314-1.335-.004-.01.92-.532.006.014 2.313-1.334-.006-.015 1.57-.907a1.81 1.81 0 0 0 .913-1.574V10.912a1.81 1.81 0 0 0-.913-1.574L16.902 4.25a1.8 1.8 0 0 0-.907-.24H16h-.01.005c-.314 0-.62.077-.907.24L6.276 9.338a1.81 1.81 0 0 0-.912 1.574v10.176c0 .653.345 1.248.912 1.574l1.577.912-.003.01 2.313 1.335.003-.01.92.531-.002.006 2.315 1.335z"/>
</svg>
