<svg width="32" height="32" viewBox="0 0 32 32" fill="none" xmlns="http://www.w3.org/2000/svg">
<style>
@media (prefers-color-scheme: dark) {
    .background {
        fill: #F6F6F6;
    }
    .foreground {
        fill: #1F1F1F;
    }
}
</style>
<path class="background" d="M0 8C0 3.58172 3.58172 0 8 0H24C28.4183 0 32 3.58172 32 8V24C32 28.4183 28.4183 32 24 32H8C3.58172 32 0 28.4183 0 24V8Z" fill="#1F1F1F"/>
<path class="foreground" d="M15.9826 26C21.515 26 26 21.5228 26 16C26 10.4771 21.515 6 15.9826 6C10.7337 6 6.42765 10.0299 6 15.1594H19.2408V16.8406H6C6.42765 21.9701 10.7337 26 15.9826 26Z" fill="#F6F6F6"/>
</svg>