<svg xmlns="http://www.w3.org/2000/svg" width="32" height="32" viewBox="0 0 32 32" fill="none">
    <path class="bg" fill="#1F1F1F" d="M0 8a8 8 0 0 1 8-8h16a8 8 0 0 1 8 8v16a8 8 0 0 1-8 8H8a8 8 0 0 1-8-8z"/>
    <path class="fg" fill="#F6F6F6" d="M21.285 10.729c-.804-1.823-2.652-2.213-4.914-1.836l-.727-2.818-1.713.443.714 2.81c-.45.114-.913.211-1.372.341l-.715-2.794-1.714.443.727 2.818c-.37.106-3.46.898-3.46.898l.471 1.835s1.26-.353 1.247-.325c.698-.183 1.027.167 1.182.496l1.998 7.723c.024.224-.017.605-.496.735.029.017-1.246.321-1.246.321l.186 2.14 3.464-.885.735 2.85 1.714-.442-.735-2.87q.706-.165 1.377-.342l.73 2.855 1.714-.443-.735-2.846c2.64-.642 4.504-2.307 4.122-4.853-.243-1.535-1.92-2.794-3.314-2.936.857-.76 1.292-1.868.76-3.318m-.825 6.72c.342 2.523-3.163 2.831-4.32 3.136l-1.007-3.773c1.161-.304 4.75-1.584 5.328.638m-2.111-5.136c.361 2.241-2.636 2.501-3.602 2.749l-.918-3.423c.97-.24 3.785-1.401 4.52.674"/>
</svg>
