<svg xmlns="http://www.w3.org/2000/svg" width="32" height="32" viewBox="0 0 32 32" fill="none">
    <path class="bg" fill="#1F1F1F" d="M0 8a8 8 0 0 1 8-8h16a8 8 0 0 1 8 8v16a8 8 0 0 1-8 8H8a8 8 0 0 1-8-8z"/>
    <path class="fg" fill="#F6F6F6" fill-rule="evenodd" d="m22.135 15.058-.013-2.664h.01l-2.263-1.332-3.876 2.286-3.853-2.286-2.26 1.332v2.663l3.876 2.275v4.56l2.25 1.32 2.252-1.32v-4.56zM15.994 4.24 9.877 7.846l2.25 1.332 3.866-2.286 3.877 2.286 2.251-1.332zM8.263 20.55 8.25 16 6 14.67v7.224l6.128 3.594v-2.664zm-.013-6.448v-2.65l2.262-1.332L8.25 8.788 6 10.12v2.65zm7.744-5.314-2.252 1.332 2.252 1.331 2.262-1.332zm-3.866 9.487-2.251-1.332v2.664l2.25 1.319zm3.865 6.835-2.25-1.332v2.651l2.25 1.332 2.263-1.332v-2.65zm7.742-16.322-2.25 1.332 2.25 1.331v2.651l2.262-1.332v-2.65zM23.75 16l-.013 4.55-3.864 2.273v2.663L26 21.892V14.67zm-1.627 3.607-2.251 1.319v-2.651l2.251-1.332z" clip-rule="evenodd"/>
</svg>
