<svg xmlns="http://www.w3.org/2000/svg" width="32" height="32" viewBox="0 0 32 32" fill="none">
    <path class="bg" fill="#1F1F1F" d="M0 8a8 8 0 0 1 8-8h16a8 8 0 0 1 8 8v16a8 8 0 0 1-8 8H8a8 8 0 0 1-8-8z"/>
    <path class="fg" fill="#fff" fill-rule="evenodd" d="M16 4.96C9.903 4.96 4.96 9.903 4.96 16S9.903 27.04 16 27.04 27.04 22.097 27.04 16 22.097 4.96 16 4.96M4 16C4 9.373 9.373 4 16 4s12 5.373 12 12-5.373 12-12 12S4 22.627 4 16" clip-rule="evenodd"/>
    <path class="fg" fill="#fff" d="M21.347 13.008c-.259-1.584-1.622-2.26-3.464-2.422V8.238H16.46l-.011 2.336c-.374 0-.755-.017-1.14-.01l.007-2.324h-1.427v2.346c-.31.008-2.883.003-2.883.003l-.002 1.526s1.053-.02 1.039 0c.58-.003.768.336.822.624v6.43c-.027.18-.136.47-.536.474.02.02-1.037 0-1.037 0l-.286 1.707 2.881.008v2.373h1.424l.007-2.389q.585.014 1.144.012l-.007 2.376h1.428v-2.368c2.19.032 3.98-.893 4.196-2.957.12-1.248-.934-2.568-1.993-2.96.822-.42 1.385-1.199 1.262-2.437m-2 5.08c-.243 2.037-3.04 1.57-4.005 1.574l-.024-3.147c.968-.003 4.028-.277 4.03 1.573m-.611-4.435c-.17 1.822-2.56 1.42-3.365 1.417l-.025-2.856c.804.01 3.236-.33 3.392 1.439z"/>
</svg>
