<svg xmlns="http://www.w3.org/2000/svg" width="32" height="32" viewBox="0 0 32 32" fill="none">
    <path class="bg" fill="#1F1F1F" d="M0 8a8 8 0 0 1 8-8h16a8 8 0 0 1 8 8v16a8 8 0 0 1-8 8H8a8 8 0 0 1-8-8z"/>
    <path class="fg" fill="#fff" fill-rule="evenodd" d="M12.132 8.495h6.734c5.916 0 6.964 3.23 6.125 7.767-.564 3.046-1.972 5.38-4.34 6.475-1.065.492-2.073.768-4.442.768H9.492l.56-3.122 5.907.003c3.549.006 4.496-1.535 4.958-2.884.174-.506.571-2.068.586-2.993.026-1.8-.859-2.888-3.852-2.888l-6.076-.007zm-5.082 7.76c.166-.696.433-1.821 2.176-1.821h6.894s-.072.367-.29 1.277l-.006.023c-.165.696-.432 1.82-2.176 1.82H6.756s.07-.366.289-1.276z" clip-rule="evenodd"/>
</svg>
