<svg xmlns="http://www.w3.org/2000/svg" width="32" height="32" viewBox="0 0 32 32" fill="none">
    <path fill="#1F1F1F" d="M0 8a8 8 0 0 1 8-8h16a8 8 0 0 1 8 8v16a8 8 0 0 1-8 8H8a8 8 0 0 1-8-8z"/>
    <path fill="#fff" d="M6.04 11.305h12.44s4.293-.04 1.325 5.498c0 0-2.167 4.332-7.544 4.252l2.896-7.398a.58.58 0 0 0-.054-.54.59.59 0 0 0-.475-.262l-3.812-.065L6 24.507s1.604.16 2.487.08l-.482 1.204h2.272a.3.3 0 0 0 .177-.055.3.3 0 0 0 .112-.146l.41-1.083.962-.08-.562 1.364h2.216a.4.4 0 0 0 .23-.07.4.4 0 0 0 .147-.187l.618-1.588s6.741-1.123 9.791-6.582c0 0 4.091-6.34-.722-8.586a9.2 9.2 0 0 0-2.97-.802l.562-1.39a.276.276 0 0 0-.12-.343.3.3 0 0 0-.129-.034H18.92l-.642 1.685h-.882l.497-1.308q.024-.062.016-.131a.3.3 0 0 0-.144-.212.3.3 0 0 0-.128-.034H15.55l-.642 1.685H8.423a.96.96 0 0 0-.85.505z"/>
</svg>
