<svg xmlns="http://www.w3.org/2000/svg" width="32" height="32" viewBox="0 0 32 32" fill="none">
    <path class="bg" fill="#1F1F1F" d="M0 8a8 8 0 0 1 8-8h16a8 8 0 0 1 8 8v16a8 8 0 0 1-8 8H8a8 8 0 0 1-8-8z"/>
    <path class="fg" fill="#F6F6F6" fill-rule="evenodd" d="M15.82 25.987H9.097v-8.903h-2.37v-2.18h2.37V6h5.875c1.669-.008 10.3-.044 10.3 10.16 0 10.615-9.452 9.826-9.452 9.826M12.884 9.695h2.652c.992 0 5.983.398 5.991 6.538.008 6.067-5.024 6.06-5.834 6.06h-2.809v-5.209h4.173v-2.18h-4.173z" clip-rule="evenodd"/>
</svg>
