<svg width="32" height="32" viewBox="0 0 32 32" fill="none" xmlns="http://www.w3.org/2000/svg">
<path d="M0 8C0 3.58172 3.58172 0 8 0H24C28.4183 0 32 3.58172 32 8V24C32 28.4183 28.4183 32 24 32H8C3.58172 32 0 28.4183 0 24V8Z" fill="#1F1F1F"/>
<path d="M16 4.5L10.618 11.906L8.364 22.854L16 27.5L23.636 22.854L21.336 11.86L16 4.5ZM9.606 22.348L11.308 14.022L15.172 25.752L9.606 22.348ZM11.86 12.136L16 6.432L20.14 12.136L16 24.648L11.86 12.136ZM16.782 25.752L20.646 14.022L22.348 22.348L16.782 25.752Z" fill="white"/>
</svg>
