<svg xmlns="http://www.w3.org/2000/svg" width="32" height="32" viewBox="0 0 32 32" fill="none">
    <path class="bg" fill="#1F1F1F" d="M0 8a8 8 0 0 1 8-8h16a8 8 0 0 1 8 8v16a8 8 0 0 1-8 8H8a8 8 0 0 1-8-8z"/>
    <path class="fg" fill="#F6F6F6" d="M5.999 8.679a19.6 19.6 0 0 1 4.236-1.833c2.018-.6 4.068-.884 6.17-.842.977.021 2.607.18 2.88.284.01.021-.01.032-.032.032-.094.042-.2.074-.294.116a5.56 5.56 0 0 0-3.322 4.106q-.079.458-.094.917c-.01.463-.053.926-.19 1.379a4.7 4.7 0 0 1-3.447 3.285 4.68 4.68 0 0 1-5.298-2.59 1.5 1.5 0 0 1-.115-.348 20 20 0 0 1-.358-2.064 19 19 0 0 1-.147-2.305c.01-.053.01-.085.01-.137"/>
    <path class="fg" fill="#F6F6F6" d="M21.503 21.293c.02-.2.042-.379.052-.568a5.53 5.53 0 0 0-.662-2.949 5.5 5.5 0 0 0-1.986-2.095c-.074-.053-.158-.095-.232-.148-1.166-.737-1.881-1.779-2.134-3.137a4.657 4.657 0 0 1 3.49-5.381 4.63 4.63 0 0 1 2.512.084c.684.21 1.335.495 1.987.8.452.211.883.443 1.314.685.052.031.094.053.158.095 0 .042.01.073.01.115 0 .559-.031 1.127-.074 1.685a19.7 19.7 0 0 1-3.122 9.066 20 20 0 0 1-1.187 1.643c-.042.032-.063.074-.126.105"/>
    <path class="fg" fill="#F6F6F6" d="M16.005 26c-.157-.063-.64-.358-1.156-.705a20 20 0 0 1-3.174-2.643 19.5 19.5 0 0 1-2.565-3.244 19 19 0 0 1-1.734-3.422c-.011-.031-.022-.052-.032-.105.053.031.074.042.105.063.368.284.757.527 1.177.706.536.231 1.094.39 1.682.442a5.6 5.6 0 0 0 3.353-.716 5 5 0 0 1 1.756-.59 4.674 4.674 0 0 1 5.066 3.307c.347 1.168.242 2.305-.294 3.411-.074.148-.137.284-.21.421a.7.7 0 0 1-.169.232A20.3 20.3 0 0 1 16.005 26"/>
</svg>
