<svg xmlns="http://www.w3.org/2000/svg" width="32" height="32" viewBox="0 0 32 32" fill="none">
    <path class="bg" fill="#1F1F1F" d="M0 8a8 8 0 0 1 8-8h16a8 8 0 0 1 8 8v16a8 8 0 0 1-8 8H8a8 8 0 0 1-8-8z"/>
    <path class="fg" fill="#fff" d="M19.624 24.333v-.003a2 2 0 0 0 .51-.054c.973-.229 1.796-1.077 1.992-1.996L26 7.729l-3.08-.015-2.54 9.519-6.867-9.551-.003.004.003-.012-1.135-.007a2.2 2.2 0 0 0-.51.055c-.972.23-1.795 1.08-1.992 1.997L6 24.273l3.081.013 2.538-9.52 6.868 9.553h.003zM12.296 12.23l.537-2.012 6.868 9.555-.537 2.01-6.866-9.555z"/>
</svg>
