<svg xmlns="http://www.w3.org/2000/svg" width="32" height="32" viewBox="0 0 32 32" fill="none">
    <path class="bg" fill="#1F1F1F" d="M0 8a8 8 0 0 1 8-8h16a8 8 0 0 1 8 8v16a8 8 0 0 1-8 8H8a8 8 0 0 1-8-8z"/>
    <path class="fg" fill="#F6F6F6" d="M20.8 12.86c-.34-.195-.78-.195-1.169 0l-2.73 1.608-1.851 1.024-2.681 1.608c-.341.195-.78.195-1.17 0l-2.095-1.267a1.19 1.19 0 0 1-.585-1.024v-2.436c0-.39.195-.78.585-1.024l2.095-1.219c.341-.194.78-.194 1.17 0l2.096 1.268c.34.195.585.585.585 1.023v1.609l1.852-1.073V11.3a1.2 1.2 0 0 0-.585-1.023l-3.9-2.29c-.34-.196-.779-.196-1.169 0l-3.996 2.339a1.07 1.07 0 0 0-.585.974v4.582c0 .39.195.78.585 1.023l3.947 2.29c.341.196.78.196 1.17 0l2.68-1.559 1.853-1.072 2.68-1.56c.341-.195.78-.195 1.17 0l2.096 1.219c.34.195.585.585.585 1.023v2.437c0 .39-.195.78-.585 1.024L20.8 21.925c-.341.195-.78.195-1.17 0l-2.096-1.218a1.19 1.19 0 0 1-.585-1.024v-1.56l-1.852 1.073v1.608c0 .39.195.78.585 1.024l3.948 2.29c.341.195.78.195 1.17 0l3.948-2.29a1.19 1.19 0 0 0 .584-1.024v-4.63c0-.39-.195-.78-.584-1.023z"/>
</svg>
