<svg xmlns="http://www.w3.org/2000/svg" width="32" height="32" viewBox="0 0 32 32" fill="none">
    <path class="bg" fill="#1F1F1F" d="M0 8a8 8 0 0 1 8-8h16a8 8 0 0 1 8 8v16a8 8 0 0 1-8 8H8a8 8 0 0 1-8-8z"/>
    <path class="fg" fill="#F6F6F6" d="m25.237 20.935-3.081 3.388a.7.7 0 0 1-.524.233H7.024a.35.35 0 0 1-.196-.06.375.375 0 0 1-.065-.557l3.084-3.387a.72.72 0 0 1 .522-.233h14.607q.106 0 .196.06a.37.37 0 0 1 .156.368.37.37 0 0 1-.09.188m-3.081-6.82a.7.7 0 0 0-.524-.233H7.024q-.106 0-.196.06a.37.37 0 0 0-.156.368.37.37 0 0 0 .09.188l3.085 3.388a.72.72 0 0 0 .522.233h14.607q.106 0 .196-.06a.37.37 0 0 0 .156-.37.37.37 0 0 0-.09-.187zM7.024 11.68h14.608a.7.7 0 0 0 .524-.233l3.081-3.387a.37.37 0 0 0-.065-.557.35.35 0 0 0-.196-.06H10.369a.7.7 0 0 0-.522.233l-3.083 3.388a.37.37 0 0 0-.067.396.36.36 0 0 0 .132.16c.058.04.126.06.195.06"/>
</svg>
