<svg xmlns="http://www.w3.org/2000/svg" width="32" height="32" viewBox="0 0 32 32" fill="none">
    <path fill="#E75F5F" d="M0 8a8 8 0 0 1 8-8h16a8 8 0 0 1 8 8v16a8 8 0 0 1-8 8H8a8 8 0 0 1-8-8z"/>
    <path fill="#F6F6F6" fill-rule="evenodd" d="M16.063 6.614a.66.66 0 0 1-.692-.604c-.025-.35.258-.652.616-.677a.653.653 0 0 1 .692.597.656.656 0 0 1-.616.684M9.958 6.7a.512.512 0 0 0 .861-.554.52.52 0 0 0-.71-.142.494.494 0 0 0-.152.696m11.468.197a.503.503 0 0 1-.226-.677.524.524 0 0 1 .692-.222.496.496 0 0 1 .226.671.513.513 0 0 1-.692.228M19.83 17.561c.874-.05 1.547-.782 1.497-1.638-.044-.825-.742-1.471-1.585-1.471-.88-.007-1.59.69-1.59 1.551-.007.862.704 1.558 1.584 1.558zm7.96-1.564a.506.506 0 0 0-.54-.474.506.506 0 0 0-.484.53.51.51 0 0 0 .54.473.507.507 0 0 0 .485-.53m-8.324-7.388a.77.77 0 0 0 .352 1.04.8.8 0 0 0 1.062-.345.77.77 0 0 0-.352-1.04.8.8 0 0 0-1.062.345m5.772 2.93a.666.666 0 0 1-.906-.184.636.636 0 0 1 .189-.887.666.666 0 0 1 .905.185.63.63 0 0 1-.188.886m-.126 4.44a.784.784 0 0 0-.836-.733.783.783 0 0 0-.749.819c.026.43.396.757.837.732a.78.78 0 0 0 .748-.819m.038 4.482c.32.16.452.541.289.862a.66.66 0 0 1-.88.283.636.636 0 0 1-.29-.862.664.664 0 0 1 .88-.283m-4.37-7.087a.937.937 0 0 0 1.289.265.897.897 0 0 0 .27-1.262.937.937 0 0 0-1.289-.265.895.895 0 0 0-.27 1.262m-8.49-3.784a.81.81 0 0 1-1.1-.222.77.77 0 0 1 .226-1.077.81.81 0 0 1 1.1.221.76.76 0 0 1-.226 1.078m-.12 4.851c.875-.049 1.63.61 1.673 1.466.05.855-.622 1.594-1.496 1.637h-.088c-.874 0-1.585-.695-1.585-1.557-.006-.82.654-1.503 1.497-1.546m5.704-.055c.603 0 1.15-.333 1.42-.856.397-.763.082-1.7-.704-2.093a1.6 1.6 0 0 0-2.131.69c-.113.22-.17.461-.17.701 0 .862.71 1.558 1.585 1.558M6.85 11.539a.635.635 0 0 1-.283-.862.66.66 0 0 1 .88-.277c.321.16.447.542.29.856a.67.67 0 0 1-.887.283m4.44 1.718a.904.904 0 0 0-.415-1.225.947.947 0 0 0-1.252.406.904.904 0 0 0 .415 1.226.94.94 0 0 0 1.252-.407m3.797-3.485a.92.92 0 0 0 .981.862.92.92 0 0 0 .88-.96.92.92 0 0 0-.98-.862.914.914 0 0 0-.88.96m6.037 10.196a.904.904 0 0 1-.416-1.225.94.94 0 0 1 1.252-.406.904.904 0 0 1 .415 1.225.94.94 0 0 1-1.251.406m-6.118-5.849a1.53 1.53 0 0 0 .459-2.149 1.6 1.6 0 0 0-1.327-.702 1.6 1.6 0 0 0-.868.253 1.53 1.53 0 0 0-.459 2.149c.478.72 1.459.917 2.195.45m-2.302 4.353a1.6 1.6 0 0 1 2.132-.69c.786.388 1.1 1.324.704 2.088a1.6 1.6 0 0 1-2.132.69 1.53 1.53 0 0 1-.71-2.076c0-.006 0-.006.006-.012m-1.484.154a.937.937 0 0 0-1.289-.265.897.897 0 0 0-.27 1.262.937.937 0 0 0 1.289.265.895.895 0 0 0 .27-1.262M6.89 16.028a.78.78 0 0 1 .748-.82.784.784 0 0 1 .837.733.78.78 0 0 1-.749.82.79.79 0 0 1-.836-.733m-1.654-.08a.506.506 0 0 0-.54-.474.51.51 0 0 0-.484.53.51.51 0 0 0 .54.473.507.507 0 0 0 .484-.53m1.528 4.513a.666.666 0 0 1 .906.184.636.636 0 0 1-.189.887.666.666 0 0 1-.905-.185.63.63 0 0 1 .188-.886m15.286 4.833a.52.52 0 0 0-.71-.142.49.49 0 0 0-.145.696.52.52 0 0 0 .71.141.5.5 0 0 0 .145-.695m-11.475-.191a.503.503 0 0 1 .226.677.524.524 0 0 1-.692.222.496.496 0 0 1-.226-.671.513.513 0 0 1 .692-.228m6.42-7.228a1.54 1.54 0 0 0-.46 2.155c.296.443.793.708 1.333.701a1.6 1.6 0 0 0 .868-.252 1.534 1.534 0 0 0 .46-2.155 1.61 1.61 0 0 0-2.202-.45m2.716 4.537a.81.81 0 0 1 1.1.222.77.77 0 0 1-.226 1.077.81.81 0 0 1-1.1-.221.76.76 0 0 1 .226-1.078m-3.012 3.577a.656.656 0 0 0-1.308.08.654.654 0 0 0 .692.598c.358-.025.641-.327.616-.678M16 21.366a.92.92 0 0 1 .98.862.914.914 0 0 1-.88.96c-.515.025-.955-.357-.98-.862a.917.917 0 0 1 .88-.96m-3.47 2.031a.77.77 0 0 0-.347-1.046.81.81 0 0 0-1.075.345.77.77 0 0 0 .352 1.04.803.803 0 0 0 1.07-.339" clip-rule="evenodd"/>
</svg>
