<svg width="32" height="32" viewBox="0 0 32 32" fill="none" xmlns="http://www.w3.org/2000/svg">
<path d="M0 8C0 3.58172 3.58172 0 8 0H24C28.4183 0 32 3.58172 32 8V24C32 28.4183 28.4183 32 24 32H8C3.58172 32 0 28.4183 0 24V8Z" fill="#E75F5F"/>
<g clip-path="url(#clip0_1648_218)">
<path d="M21.6919 9.33334H24.0189L19.1762 14.1283C17.4224 15.8638 14.579 15.8638 12.824 14.1283L7.97931 9.33334H10.3082L13.9875 12.9758C14.5236 13.5041 15.246 13.8003 15.9987 13.8003C16.7513 13.8003 17.4738 13.5041 18.0098 12.9758L21.6919 9.33334Z" fill="#F6F6F6"/>
<path d="M10.2783 22.6663H7.94971L12.8239 17.8418C14.5777 16.1062 17.4211 16.1062 19.1761 17.8418L24.0503 22.6663H21.7233L18.0126 18.9943C17.4765 18.466 16.7541 18.1698 16.0014 18.1698C15.2488 18.1698 14.5263 18.466 13.9903 18.9943L10.2783 22.6663Z" fill="#F6F6F6"/>
</g>
<defs>
<clipPath id="clip0_1648_218">
<rect width="16.1006" height="13.3333" fill="white" transform="translate(7.94971 9.33334)"/>
</clipPath>
</defs>
</svg>
