<svg width="32" height="32" viewBox="0 0 32 32" fill="none" xmlns="http://www.w3.org/2000/svg">
<path d="M0 8C0 3.58172 3.58172 0 8 0H24C28.4183 0 32 3.58172 32 8V24C32 28.4183 28.4183 32 24 32H8C3.58172 32 0 28.4183 0 24V8Z" fill="#1F1F1F"/>
<path fill-rule="evenodd" clip-rule="evenodd" d="M6 16.2321L7.41002 14.6103H12.4263L15.509 18.5821L23.5745 7.29615C24.0532 7.73134 24.5029 8.22746 24.9178 8.78596C25.3342 9.34301 25.6954 9.93922 26 10.5731L16.0979 24.4065C15.9108 24.6052 15.7149 24.7039 15.509 24.7039C15.3015 24.7039 15.0941 24.6052 14.8852 24.4065L8.62276 16.2321H6Z" fill="white"/>
</svg>
