<svg xmlns="http://www.w3.org/2000/svg" width="32" height="32" viewBox="0 0 32 32" fill="none">
    <path class="bg" fill="#1F1F1F" d="M0 8a8 8 0 0 1 8-8h16a8 8 0 0 1 8 8v16a8 8 0 0 1-8 8H8a8 8 0 0 1-8-8z"/>
    <path class="fg" fill="#fff" fill-rule="evenodd" d="m20.769 10.98 2.408-1.226L26 8.314v1.727l-2.847 1.452-1.378.701-12.26 6.246-.682.348-.693.354L6 20.232v-1.728l.727-.37a1.54 1.54 0 0 0 .836-1.488A8.462 8.462 0 0 1 20.97 9.153l-.206.105-1.379.702A6.928 6.928 0 0 0 9.14 16.904zm-10.557 8.83L26 11.77v1.723l-.728.37a1.54 1.54 0 0 0-.835 1.488q.024.323.025.65a8.461 8.461 0 0 1-13.433 6.845l1.494-.762.085-.045a6.928 6.928 0 0 0 10.256-6.949l-11.64 5.932-2.409 1.227L6 23.684v-1.727l2.835-1.444z" clip-rule="evenodd"/>
</svg>
