<svg xmlns="http://www.w3.org/2000/svg" width="32" height="32" viewBox="0 0 32 32" fill="none">
    <path class="bg" fill="#1F1F1F" d="M0 8a8 8 0 0 1 8-8h16a8 8 0 0 1 8 8v16a8 8 0 0 1-8 8H8a8 8 0 0 1-8-8z"/>
    <path class="fg" fill="#fff" d="M18.14 26q-2.137 0-3.12-1.031a3.2 3.2 0 0 1-.98-2.222 1.5 1.5 0 0 1 .172-.735 1.27 1.27 0 0 1 .468-.47 1.63 1.63 0 0 1 1.457 0c.194.113.355.275.465.47.124.225.185.478.178.735.013.305-.075.607-.25.859a1.16 1.16 0 0 1-.593.434c.235.299.566.506.937.585.414.12.844.183 1.276.184a2.84 2.84 0 0 0 1.607-.481c.493-.349.86-.847 1.048-1.422a6.2 6.2 0 0 0 .344-2.128 5.9 5.9 0 0 0-.375-2.212 2.73 2.73 0 0 0-1.083-1.375 2.9 2.9 0 0 0-1.56-.447c-.48.04-.944.198-1.35.46l-1.003.502v-.503l4.503-6.05h-6.24v6.278a2.25 2.25 0 0 0 .342 1.285 1.18 1.18 0 0 0 1.049.503 1.75 1.75 0 0 0 1.036-.366c.337-.247.63-.55.867-.894a.3.3 0 0 1 .113-.15.23.23 0 0 1 .15-.056.52.52 0 0 1 .294.125.63.63 0 0 1 .159.425q-.018.158-.056.313a3 3 0 0 1-1.07 1.33c-.444.3-.967.46-1.502.457q-2.027 0-2.808-.8a3 3 0 0 1-.774-2.187v-6.262H8.667V9.987h3.189V7.328l-.73-.732V6h2.118l.796.413v3.574l8.244-.025.821.825-5.055 5.087a3.4 3.4 0 0 1 .955-.23 4.1 4.1 0 0 1 1.847.527 3.8 3.8 0 0 1 1.592 1.423c.344.522.587 1.104.718 1.715q.16.726.171 1.47a6.15 6.15 0 0 1-.624 2.721 4 4 0 0 1-1.872 1.875A6.05 6.05 0 0 1 18.14 26"/>
</svg>
